<?xml version="1.0" standalone="no"?>
<!DOCTYPE svg PUBLIC "-//W3C//DTD SVG 1.1//EN" "http://www.w3.org/Graphics/SVG/1.1/DTD/svg11.dtd" >
<!--
2013-9-30: Created.
-->
<svg>
<metadata>
Created by iconfont
</metadata>
<defs>

<font id="iconfont" horiz-adv-x="1024" >
  <font-face
    font-family="iconfont"
    font-weight="500"
    font-stretch="normal"
    units-per-em="1024"
    ascent="896"
    descent="-128"
  />
    <missing-glyph />
    
    <glyph glyph-name="shixiang" unicode="&#58916;" d="M780.682857 520.537699 780.682857-6.367779 198.9384-6.367779 198.9384 756.163161 586.371336 756.163161 638.341988 808.350754 143.168212 808.350754 143.168212-63.175599 836.452022-63.175599 836.452022 576.538131ZM734.063073 535.752216c-4.998851-8.81169-14.937201-10.148128-22.084994-2.969635L575.518151 669.809421c-7.147794 7.178493-5.635347 16.861016 3.362584 21.515013l130.178875 67.347874c8.997931 4.65502 19.243273 16.234753 22.76754 25.733081l13.984503 37.688367c3.524267 9.497305 12.257162 11.395538 19.404955 4.217045l102.616122-103.041818c7.147794-7.178493 5.558599-16.70752-3.533476-21.175275l-33.226752-16.328897c-9.092076-4.467755-20.61962-15.33322-25.618471-24.145933L734.063073 535.752216zM561.104883 529.774061 634.683668 628.706281 664.840502 599.786625ZM259.295046 561.943738l223.569892 0 0-29.262464-223.569892 0 0 29.262464ZM259.295046 365.937622l354.073154 0 0-29.260417-354.073154 0 0 29.260417ZM257.562589 145.291316l464.494033 0 0-29.262464-464.494033 0 0 29.262464Z"  horiz-adv-x="1024" />

    
    <glyph glyph-name="tongji" unicode="&#58947;" d="M33.651934-51.413717c-18.549471 0-33.630958 15.081487-33.630958 33.630958l0 808.411897c0 18.556635 15.081487 33.645284 33.630958 33.645284 18.556635 0 33.645284-15.08865 33.645284-33.645284l0-774.773775 923.04982 0c18.549471 0 33.630958-15.08865 33.630958-33.638121 0-18.549471-15.081487-33.630958-33.630958-33.630958L33.651934-51.413717zM142.599252 130.284531c-7.294127 0-14.253632 2.319835-20.123316 6.705726-14.85022 11.120268-17.893532 32.243355-6.779404 47.093575l220.624816 294.755164c6.42227 8.570189 16.244986 13.485129 26.963095 13.485129 6.705726 0 13.19451-1.977028 18.758226-5.728468L580.447415 352.989729l349.6054 278.503015c6.019087 4.796236 13.253862 7.331989 20.928658 7.331989 10.314926 0 19.906375-4.617158 26.328645-12.679787 5.601578-7.018857 8.121981-15.804964 7.123234-24.740474-1.006933-8.92016-5.436826-16.923438-12.462846-22.532179L603.069645 284.998195c-5.91471-4.728698-13.358239-7.324826-20.958334-7.324826-6.720052 0-13.217023 1.977028-18.787902 5.728468L371.011428 412.90533l-201.448058-269.127484C163.148263 135.200494 153.317361 130.284531 142.599252 130.284531z"  horiz-adv-x="1024" />

    
    <glyph glyph-name="gongjijin" unicode="&#59008;" d="M537.6 563.2l153.6 0 0-179.2-153.6 0 0 179.2ZM512 819.2c-243.2 0-441.6-198.4-441.6-441.6S268.8-64 512-64s441.6 198.4 441.6 441.6S761.6 819.2 512 819.2zM486.4 620.8l262.4 0 0-281.6L486.4 339.2 486.4 620.8zM390.4 371.2l0-249.6L339.2 121.6 339.2 358.4C320 313.6 294.4 268.8 268.8 224L243.2 281.6C288 326.4 320 384 339.2 441.6L262.4 441.6 262.4 492.8l83.2 0L345.6 563.2C320 556.8 294.4 556.8 268.8 550.4L262.4 601.6c64 6.4 128 19.2 179.2 38.4l19.2-51.2C435.2 582.4 416 576 390.4 576l0-76.8 64 0 0-51.2-64 0 0-25.6C422.4 390.4 448 364.8 473.6 332.8L441.6 288C422.4 320 409.6 345.6 390.4 371.2zM492.8 115.2l-44.8 32c38.4 44.8 64 102.4 89.6 160l44.8-25.6C556.8 217.6 524.8 160 492.8 115.2zM736 115.2c-25.6 51.2-51.2 108.8-96 166.4l44.8 25.6c38.4-64 76.8-115.2 96-166.4L736 115.2z"  horiz-adv-x="1024" />

    
    <glyph glyph-name="weibiaoti507" unicode="&#59025;" d="M172.416 243.52c-38.912 0-70.464-31.552-70.464-70.464s31.552-70.464 70.464-70.464 70.464 31.552 70.464 70.464-31.552 70.464-70.464 70.464zM172.416 127.744c-25.024 0-45.312 20.288-45.312 45.312s20.288 45.312 45.312 45.312 45.312-20.288 45.312-45.312-20.288-45.312-45.312-45.312zM850.88 243.52c-38.912 0-70.464-31.552-70.464-70.464s31.552-70.464 70.464-70.464c38.912 0 70.464 31.552 70.464 70.464s-31.552 70.464-70.464 70.464zM850.88 128.576c-24.576 0-44.48 19.904-44.48 44.48s19.904 44.48 44.48 44.48 44.48-19.904 44.48-44.48-19.904-44.48-44.48-44.48zM1020.032 283.776v241.408c0 34.816-28.224 63.104-63.104 63.104h-885.824c-34.816 0-63.104-28.224-63.104-63.104v-289.152c0-34.816 28.224-63.104 63.104-63.104h24.832c0 0.064 0 0.064 0 0.128 0 42.24 34.24 76.48 76.48 76.48s76.48-34.24 76.48-76.48c0-0.064 0-0.064 0-0.128h525.504c0 0.064 0 0.064 0 0.128 0 42.24 34.24 76.48 76.48 76.48 42.24 0 76.48-34.24 76.48-76.48 0-0.064 0-0.064 0-0.128h29.568c31.808 0 56.96 23.872 61.312 54.464h-24.448v56.384h26.24zM194.56 354.24h-69.824c-35.584 0-64.448 28.864-64.448 64.448l-0 77.248c0 1.152 0.576 2.112 0.64 3.264h133.632v-144.96zM413.312 354.24h-204.672v144.96h204.672v-144.96zM632.128 354.24h-204.672v144.96h204.672v-144.96zM850.88 354.24h-204.672v144.96h204.672v-144.96zM984.768 380.608c0-35.584-24.512-64.448-60.096-64.448h-0.896c-26.112 0-48.384 15.744-58.496 38.080h-0.384l-0 144.96h120.832c0.064-1.152 0.64-2.112 0.64-3.264l-1.6-115.328z"  horiz-adv-x="1024" />

    
    <glyph glyph-name="gongwen" unicode="&#58882;" d="M866.494 518.38c-16.66 27.994-44.427 55.99-77.752 89.583-27.765 27.998-61.09 55.99-88.857 78.388-44.43 33.598-66.646 39.194-77.75 39.194H300.018c-38.876 0-72.197-33.594-72.197-72.787V8.86c0-39.192 33.32-72.786 72.197-72.786h527.599c38.876 0 72.201 33.594 72.201 72.786V439.994c5.555 11.196 0 33.592-33.325 78.386z m-111.072 50.39c27.77-27.992 49.985-50.39 61.09-72.786H683.225V630.361c22.216-16.797 44.426-33.594 72.197-61.59z m94.412-559.91c0-5.6-5.55-16.796-16.661-16.796h-527.6c-5.555 0-16.66 5.6-16.66 16.796V652.758c0 5.6 5.55 16.797 16.66 16.797H627.69v-195.968c0-16.796 11.105-27.997 27.766-27.997h194.379v-436.73z m-255.47 783.875c-44.431 33.593-66.641 39.193-77.751 39.193H194.497c-38.876 0-72.197-33.593-72.197-72.787v-643.895c0-33.594 22.215-61.592 55.536-67.192V759.141c0 5.597 5.555 16.798 16.661 16.798H616.58c-5.554 5.6-11.106 11.196-22.215 16.796zM718.91 247.227c-56.423 0-102.33-45.895-102.33-102.33s45.907-102.33 102.33-102.33c56.435 0 102.33 45.895 102.33 102.33s-45.908 102.33-102.33 102.33z m0-181.918c-43.887 0-79.588 35.726-79.588 79.6 0 43.887 35.7 79.587 79.588 79.587 43.874 0 79.6-35.713 79.6-79.587s-35.727-79.6-79.6-79.6z m18.214 102.522l-18.215 52.38-18.214-52.38-55.45-1.125 44.193-33.5-16.053-53.097 45.524 31.684 45.524-31.697-16.053 53.097 44.18 33.5-55.436 1.138zM569.515 470.4h-232.16c-14.129 0-25.583 11.455-25.583 25.583 0 14.13 11.454 25.583 25.583 25.583h232.16c14.13 0 25.583-11.454 25.583-25.583 0-14.13-11.454-25.582-25.583-25.582zM625.927 369.948H337.355c-14.129 0-25.583 11.454-25.583 25.583 0 14.128 11.454 25.582 25.583 25.582h288.572c14.129 0 25.583-11.454 25.583-25.582 0-14.13-11.454-25.583-25.583-25.583zM678.116 269.496H337.355c-14.129 0-25.583 11.454-25.583 25.583 0 14.129 11.454 25.582 25.583 25.582h340.76c14.13 0 25.584-11.453 25.584-25.582 0-14.129-11.454-25.583-25.583-25.583zM569.515 169.044h-232.16c-14.129 0-25.583 11.454-25.583 25.583 0 14.129 11.454 25.583 25.583 25.583h232.16c14.13 0 25.583-11.454 25.583-25.583 0-14.129-11.454-25.583-25.583-25.583z"  horiz-adv-x="1024" />

    
    <glyph glyph-name="kaiye1" unicode="&#59049;" d="M949.512358-1.77303c0-32.580707-26.483461-59.110712-59.110713-59.110713H130.014477c-32.720339 0-59.2038 26.530005-59.2038 59.110713v442.166744c0 32.580707 26.530005 59.110712 59.2038 59.110712H890.401645c32.627251 0 59.110712-26.530005 59.110713-59.110712v-442.166744zM508.416122 828.802291L680.023363 547.351522H336.715794l171.653784 281.450769zM889.005329 547.351522h-154.525641L528.197266 885.632353c-8.517528 13.870073-31.370567 13.776985-39.748463 0L282.259468 547.351522v-0.046544H131.317705A108.121405 108.121405 0 0 1 23.289388 439.369749v-440.491165a108.121405 108.121405 0 0 1 107.981773-108.028318h757.734168a108.121405 108.121405 0 0 1 107.981774 107.981774V439.369749a108.121405 108.121405 0 0 1-107.981774 107.981773zM844.323216 200.227356h-2.466825l-90.527823 125.296092h-34.349374v-196.740929h39.376112V254.590594h2.466825l90.667455-125.854619h34.256286v196.740929h-39.422656zM544.953058 128.782519h130.369374v33.930479h-89.178051v49.662307H670.249151v31.789462h-84.10477v47.428201h89.178051v33.977024h-130.32283zM264.898606 177.327773a45.426815 45.426815 0 0 0-38.165972-18.664091 45.61299 45.61299 0 0 0-38.445235 18.617547c-9.494949 12.5203-14.149336 29.136461-14.149336 49.94157 0 20.898197 4.700931 37.560901 14.335512 49.94157a46.124973 46.124973 0 0 0 38.305603 18.52446 45.61299 45.61299 0 0 0 38.165972-18.52446c9.401861-12.380669 14.149336-29.043374 14.149335-49.94157 0-20.805109-4.747475-37.42127-14.195879-49.895026m-38.165972 153.268957c-28.857198 0-51.9895-9.308774-69.117644-27.740146-17.128143-18.524459-25.599127-43.751236-25.599127-75.633785s8.470984-57.109326 25.412952-75.680329c17.035056-18.524459 40.120814-27.786689 69.350363-27.786689 29.089917 0 52.082588 9.26223 68.978012 27.786689 16.941968 18.571003 25.50604 43.751236 25.50604 75.680329 0 31.836006-8.564072 57.016238-25.50604 75.540698-16.941968 18.571003-39.888095 27.833233-68.978012 27.833233M456.985148 232.016818c-6.609229-5.911071-15.731827-8.843335-27.460882-8.843335h-29.788075V292.756565h29.927707c11.822142 0 20.944741-2.978808 27.460882-8.982966 6.516141-5.911071 9.774212-14.614774 9.774212-26.064566 0-11.170528-3.258071-19.7346-9.913844-25.738759m-16.429985 93.553174H358.498324v-196.834017h41.191323v61.903344h38.86413c20.712021 0 37.560901 6.190334 50.593184 18.617547 13.078827 12.287581 19.594968 28.484847 19.594968 48.498711 0 20.33967-6.283422 36.769656-18.89681 49.150324-12.566844 12.380669-28.99683 18.617547-49.289956 18.617547"  horiz-adv-x="1024" />

    
    <glyph glyph-name="statistics1" unicode="&#58921;" d="M33.652-51.41399999999999c-18.55 0-33.631 15.082-33.631 33.631V790.63c0 18.557 15.081 33.645 33.63 33.645 18.558 0 33.646-15.088 33.646-33.645v-774.774h923.05c18.55 0 33.631-15.088 33.631-33.638 0-18.55-15.081-33.63-33.631-33.63H33.652z m108.947 181.699c-7.294 0-14.253 2.32-20.123 6.705-14.85 11.12-17.894 32.244-6.78 47.094l220.625 294.755c6.423 8.57 16.245 13.485 26.963 13.485a33.435 33.435 0 0 0 18.759-5.728L580.447 352.99l349.606 278.503c6.019 4.796 13.254 7.332 20.928 7.332 10.315 0 19.907-4.617 26.33-12.68 5.6-7.019 8.121-15.805 7.122-24.74-1.007-8.92-5.436-16.924-12.462-22.533L603.07 284.99800000000005c-5.915-4.729-13.359-7.325-20.959-7.325a33.513 33.513 0 0 0-18.788 5.729L371.011 412.905 169.563 143.77800000000002c-6.415-8.578-16.246-13.493-26.964-13.493z"  horiz-adv-x="1024" />

    
    <glyph glyph-name="yunanquan" unicode="&#58899;" d="M868 707.7c-15.3 13.8-35.1 21.3-55.9 21.3-1.8 0-3.8-0.1-5.9-0.3-1.7-0.1-9.7-0.5-21.1-0.5-21.5 0-63.3 1.4-102.7 10.7-35.5 8.3-78.7 42.7-104.5 63.2-9.4 7.5-16.3 12.9-21.8 16.5l-0.2 0.1c-13.6 8.5-29.2 13.1-45.1 13.1-16 0-31.6-4.5-45.1-13.1-2.6-1.7-4.2-3.1-7.4-6.1-57.6-54-97.3-69.3-115.8-73.6-40.9-9.6-86-10.7-103.5-10.7-12.6 0-20.3 0.4-21.2 0.5-2 0.2-3.9 0.2-5.7 0.2-20.8 0-40.6-7.6-56-21.5-17.8-15.8-28.1-38.7-28.1-62.7v-130.1c0-114.6 18.3-216 54.4-301.4 29.5-69.7 70.8-128.8 122.8-175.7 89.9-81.1 181.3-98.6 191.4-100.3 4.8-0.8 9.6-1.2 14.2-1.2s9.4 0.4 14.2 1.2c10.2 1.7 102.2 19.3 192.6 100.2 52.4 46.9 94 106 123.7 175.7 36.4 85.3 54.8 186.8 54.8 301.4V644.8c0.1 24.2-10.2 47.1-28.1 62.9z m-30.9-193c0-190.4-52.8-334.3-157.1-427.7-79.5-71.3-160.7-85.7-164.1-86.3-1.8-0.3-3.5-0.5-5.1-0.5-1.6 0-3.3 0.2-5.1 0.5-3.4 0.6-83.7 14.9-162.8 86.2C239.4 180.29999999999995 187 324.20000000000005 187 514.7V644.8c0 4.8 2.3 9.5 6.4 13.1l0.3 0.2c4.7 4.3 11.4 6.7 18.3 6.7 0.2 0 0.6 0 1.2-0.1h0.2c1.7-0.1 11.2-0.7 25.5-0.7 24.1 0 71.2 1.6 116 12.1 42.1 9.9 91.2 40.2 142 87.8l0.3 0.3c4.1 2.1 8.8 3.3 13.6 3.3 5.4 0 10.9-1.5 15.4-4.3 3-2 9.7-7.3 16.8-12.9 29.6-23.5 79.2-62.9 126.9-74.1 44.8-10.5 91.4-12.1 115.2-12.1 13.4 0 23.1 0.5 25.5 0.7 0.9 0.1 1.4 0.1 1.5 0.1 6.9 0 13.6-2.4 18.2-6.7l0.4-0.3c4.1-3.6 6.4-8.3 6.4-13.1v-130.1zM693.2 419.9v1.6c0 45.9-17.9 89-50.4 121.4-32.4 32.4-75.5 50.3-121.4 50.4H520c-38.9 0-77-13.4-107.3-37.8-28.5-22.9-49.1-54.7-58.4-90-25.5-3.6-48.9-15.8-66.5-34.8C268.6 410 258 383 258 354.79999999999995v-3.4c0.1-61.6 50.2-111.7 111.8-111.8H509c1.4 0 2.9 0.1 4.6 0.2h0.1c1.5-0.1 3.1-0.2 4.9-0.2h158.3c48.8 0.1 88.6 39.8 88.6 88.6v4.5c0 22.3-8.4 43.6-23.5 60-12.9 14.3-30 23.7-48.8 27.2z m18.3-91.6c0-19.1-15.6-34.6-34.7-34.6h-158c-0.3 0-0.9 0.1-1.4 0.1l-3.6 0.3s-4.8-0.4-4.9-0.4h-139c-31.8 0-57.8 26-57.8 57.8v3.3c0 14.6 5.5 28.5 15.4 39.3 9.9 10.7 23.4 17.3 38 18.4l32.9 2.6 7.1 32.2c5.7 26 20.3 49.5 41.1 66.2 20.8 16.7 46.8 25.9 73.4 25.9h1.4c31.4 0 61-12.3 83.2-34.5 22.2-22.2 34.5-51.8 34.5-83.2v-1.1c0-2-0.1-4-0.2-6.2l-2.5-43.3 43.3-3.6c8.7-0.7 16.7-4.7 22.6-11.1 5.9-6.4 9.2-14.8 9.2-23.5v-4.6z"  horiz-adv-x="1024" />

    
    <glyph glyph-name="yuancheng" unicode="&#58928;" d="M284.8-64h452.8c11.2 0 20.8 11.2 20.8 24s-8 24-19.2 24H284.8c-11.2 0-20.8-11.2-20.8-24s9.6-24 20.8-24zM420.8-16h182.4l-24 128h-136l-22.4-128z m200 176l40-224H363.2l40 224h217.6zM48 240h928v48H48zM0 760C0 800 32 832 72 832h880C992 832 1024 800 1024 760v-576c0-40-32-72-72-72h-880C32 112 0 144 0 184v576z m48 0v-576c0-12.8 11.2-24 24-24h880c12.8 0 24 11.2 24 24v576c0 12.8-11.2 24-24 24h-880C59.2 784 48 772.8 48 760zM705.6 592c8-9.6 8-25.6-1.6-33.6s-25.6-8-33.6 1.6c-40 44.8-96 72-156.8 72-60.8 0-118.4-27.2-156.8-72-8-9.6-24-11.2-33.6-1.6-9.6 8-11.2 24-1.6 33.6 48 56 118.4 88 193.6 88 72 0 142.4-32 190.4-88zM656 526.4c8-11.2 4.8-25.6-6.4-33.6s-25.6-4.8-33.6 6.4c-24 33.6-62.4 54.4-104 54.4s-80-20.8-104-54.4c-8-11.2-22.4-12.8-33.6-6.4-11.2 8-12.8 22.4-6.4 33.6 32 46.4 86.4 73.6 144 73.6 57.6 0 110.4-27.2 144-73.6zM598.4 467.2c6.4-11.2 1.6-25.6-11.2-32-11.2-6.4-25.6-1.6-32 11.2-8 16-24 27.2-43.2 27.2-19.2 0-35.2-11.2-43.2-27.2-6.4-11.2-20.8-16-32-11.2-11.2 6.4-16 20.8-11.2 32 16 32 49.6 52.8 86.4 52.8 36.8 0 70.4-20.8 86.4-52.8zM512 408m-24 0a24 24 0 1 1 48 0 24 24 0 1 1-48 0Z"  horiz-adv-x="1024" />

    
    <glyph glyph-name="rexian" unicode="&#59051;" d="M442.10176-44.08832c0 0.0512 139.61216 0.0512 139.61216 0.0512 0.09216 0 0 46.58176 0 46.58176 0-0.0512-139.61216-0.0512-139.61216-0.0512-0.09216-0.00512 0-46.58176 0-46.58176z m405.02784 188.72832a209.96096 209.96096 0 0 0-32.7424-2.53952 23.2704 23.2704 0 0 0-23.2704 23.2704V537.66144a23.26528 23.26528 0 0 0 23.2704 23.26016 208.36352 208.36352 0 0 0 100.75136-25.7792C856.7808 700.69248 696.27904 816.87552 511.1296 816.87552c-185.4208 0-346.3424-116.5056-404.46464-282.84928a208.32256 208.32256 0 0 0 102.75328 26.89536 23.26016 23.26016 0 0 0 23.26528-23.26016v-372.29056a23.26528 23.26528 0 0 0-23.26528-23.2704c-115.65568 0-209.41824 93.7472-209.41824 209.408a209.41824 209.41824 0 0 0 47.00672 132.21376 23.21408 23.21408 0 0 0 0.04608 9.46688c45.32736 214.30272 238.49984 370.2272 464.06144 370.2272 228.72576 0 423.78752-160.27648 465.72544-378.57792l0.24064-1.46432a208.50176 208.50176 0 0 0 46.72-131.8656c0-76.77952-41.33888-143.92832-102.9888-180.38784-62.85824-109.82912-168.7808-190.6176-293.15072-222.592a46.37696 46.37696 0 0 0-45.952-39.11168H442.10176c-25.70752 0-46.5408 20.89984-46.5408 46.4896v46.62784a46.38208 46.38208 0 0 0 46.5408 46.4896h139.61216c25.7024 0 46.5408-20.89984 46.5408-46.4896v-5.61152a428.5184 428.5184 0 0 1 218.87488 147.71712zM46.53568 351.50848c0.32768-145.69984 139.61216-162.45248 139.61216-162.45248V513.50528s-139.9296-16.29184-139.61216-161.9968z m930.73408 0c0.31744 145.70496-139.61216 161.9968-139.61216 161.9968v-324.44928c0 0.00512 139.28448 16.75264 139.61216 162.45248z"  horiz-adv-x="1024" />

    
    <glyph glyph-name="insurance" unicode="&#59329;" d="M441.6 589.2L403 607.4c-3.3 1.6-7.3-0.2-8.4-3.7-17.5-58.5-45.2-110.1-82.2-153.6-1.3-1.6-1.8-3.7-1.2-5.6l13.2-43.5c1.3-4.4 7-5.7 10.2-2.4 7.7 8.1 15.4 16.9 23.1 26V240c0-4.4 3.6-8 8-8H403c4.4 0 8 3.6 8 8V502.9c13.8 25.1 25.1 51.7 33.6 79 1 2.9-0.3 6-3 7.3zM468.4 580v-127.2c0-4.4 3.6-8 8-8h65.9v-18.6h-94.9c-4.4 0-8-3.6-8-8v-35.6c0-4.4 3.6-8 8-8h55.1c-19.1-30.8-42.4-55.7-71-76-2.6-1.8-3.3-5.4-1.6-8.1l22.8-36.5c1.9-3.1 6.2-3.8 8.9-1.4 31.6 26.8 58.7 62.9 80.6 107.6v-120c0-4.4 3.6-8 8-8h36.2c4.4 0 8 3.6 8 8V360c21.3-41.7 47.5-77.5 78.1-106.9 2.6-2.5 6.8-2.1 8.9 0.7l26.3 35.3c2 2.7 1.4 6.5-1.2 8.4-30.5 22.6-54.2 47.8-72.3 76.9h59c4.4 0 8 3.6 8 8V418c0 4.4-3.6 8-8 8h-98.8v18.6h66.7c4.4 0 8 3.6 8 8V580c0 4.4-3.6 8-8 8H476.4c-4.4 0-8-3.6-8-8z m51.5-42.8h97.9v-41.6h-97.9v41.6zM866.9 726.1L527.1 841.9C523 843.3 517.5 844 512 844s-11-0.7-15.1-2.1L157.1 726.1c-8.3-2.8-15.1-12.4-15.1-21.2v-482.4c0-8.8 5.7-20.4 12.6-25.9L499.3-72c3.5-2.7 8-4.1 12.6-4.1s9.2 1.4 12.6 4.1l344.7 268.6c6.9 5.4 12.6 17 12.6 25.9V704.9c0.2 8.8-6.6 18.3-14.9 21.2zM810 241.7L512 9.5 214 241.7V669.3l298 101.6 298-101.6v-427.6z"  horiz-adv-x="1024" />

    
    <glyph glyph-name="shijianhuaban" unicode="&#58945;" d="M400.81814 490.751154c-67.071908-67.071908-69.375905-173.53363-5.119993-237.772475s170.666433-61.951915 237.772475 5.119993 125.081429 357.716844 125.081429 357.716845-290.662003-57.992454-357.733911-125.064363z m178.585356-183.295749c-37.137016-37.137016-96.170535-38.314614-131.856886-2.611197s-34.525819 94.719871 2.611196 131.856887 198.263196 69.034572 198.263196 69.034572-31.88049-161.143246-69.017506-198.280262zM512.007322 395.365685a26.060764 26.060764 0 1 0-18.431975-7.62879 25.890098 25.890098 0 0 0 18.431975 7.62879m0 40.959944a67.020708 67.020708 0 1 1 47.394068-19.62664 66.815909 66.815909 0 0 1-47.394068 19.62664zM512.007322-128A511.9993 511.9993 0 0 0 149.972616 746.034005a512.169967 512.169967 0 0 0 632.592203 72.703901 39.389813 39.389813 0 1 0-41.676744-66.832975A433.253808 433.253808 0 1 1 866.413237 633.172293a39.389813 39.389813 0 1 0 64.392446 45.380205A511.9993 511.9993 0 0 0 512.007322-128z"  horiz-adv-x="1024" />

    
    <glyph glyph-name="fangwu" unicode="&#58902;" d="M967.24 2.46H861.232V434.439c0 39.752-31.802 71.552-71.553 71.552H646.572V720.654c0 42.404-37.104 76.855-82.156 76.855H209.292c-42.4 0-66.252-34.45-66.252-76.855V2.46H63.532c-15.899 0-26.5-13.248-26.5-26.5s10.601-26.507 23.852-26.507H967.24c13.253 0 23.849 13.254 23.849 26.506s-10.596 26.502-23.849 26.502zM787.024 452.99c10.607 0 18.553-7.951 18.553-18.552v-431.977H646.572V452.99h140.453z m-590.98 267.664c0 13.252 0 23.85 13.247 23.85h355.124c15.898 0 29.15-10.599 29.15-23.85V2.46H196.045V720.654z m0 0M341.8 564.293h-39.752c-5.3 0-10.6 5.3-10.6 10.6v42.405c0 5.3 5.299 10.6 10.6 10.6h39.753c5.299 0 10.603-5.3 10.603-10.6v-39.752c2.647-7.952-2.651-13.253-10.603-13.253z m0-127.206h-39.752c-5.3 0-10.6 5.3-10.6 10.6v39.755c0 5.3 5.299 10.6 10.6 10.6h39.753c5.299 0 10.603-5.3 10.603-10.6v-39.756c2.647-5.3-2.651-10.6-10.603-10.6z m0-127.206h-39.752c-5.3 0-10.6 5.297-10.6 10.597v39.758c0 5.3 5.299 10.6 10.6 10.6h39.753c5.299 0 10.603-5.3 10.603-10.6v-39.758c2.647-5.3-2.651-10.597-10.603-10.597z m127.207 254.412h-39.753c-5.299 0-10.598 5.3-10.598 10.6v42.405c0 5.3 5.298 10.6 10.598 10.6h39.753c5.3 0 10.605-5.3 10.605-10.6v-39.752c2.647-7.952-2.653-13.253-10.605-13.253z m0-127.206h-39.753c-5.299 0-10.598 5.3-10.598 10.6v39.755c0 5.3 5.298 10.6 10.598 10.6h39.753c5.3 0 10.605-5.3 10.605-10.6v-39.756c2.647-5.3-2.653-10.6-10.605-10.6z m0-127.206h-39.753c-5.299 0-10.598 5.297-10.598 10.597v39.758c0 5.3 5.298 10.6 10.598 10.6h39.753c5.3 0 10.605-5.3 10.605-10.6v-39.758c2.647-5.3-2.653-10.597-10.605-10.597z m0 0"  horiz-adv-x="1024" />

    
    <glyph glyph-name="banjiangonggao" unicode="&#59062;" d="M928.768 519.68c0 15.872-12.8 28.672-28.672 28.672H129.536c-15.872 0-28.672-12.8-28.672-28.672v-514.048c0-15.872 12.8-28.672 28.672-28.672h770.56c15.872 0 28.672 12.8 28.672 28.672V519.68zM385.536 605.184h259.072L515.072 752.64 385.536 605.184z m600.576-56.832v-570.88c0-31.744-25.6-56.832-56.832-56.832H100.864c-31.744 0-56.832 25.6-56.832 56.832V548.352c0 31.744 25.6 56.832 56.832 56.832h215.04c-0.512 9.728 2.048 19.456 8.704 27.136l168.96 192c11.776 13.312 30.72 13.312 41.984 0 0-0.512 0.512-0.512 0.512-0.512l0.512 0.512 168.96-192c6.656-7.168 9.216-17.408 8.704-27.136h215.04c31.232 0 56.832-25.6 56.832-56.832z m-485.376-342.528H243.712c-15.872 0-28.672-12.8-28.672-28.672 0-15.872 12.8-28.672 28.672-28.672h257.024c15.872 0 28.672 12.8 28.672 28.672 0 15.872-12.8 28.672-28.672 28.672z m313.856 142.336c0-15.872-12.8-28.672-28.672-28.672H243.712c-15.872 0-28.672 12.8-28.672 28.672 0 15.872 12.8 28.672 28.672 28.672h542.208c15.872 0 28.672-12.8 28.672-28.672z"  horiz-adv-x="1024" />

    
    <glyph glyph-name="manyidu2" unicode="&#59912;" d="M832 320c76.8 128 89.6 288 38.4 409.6-12.8 25.6-32 38.4-57.6 38.4h-12.8c-57.6 0-108.8-12.8-160-25.6C601.6 806.4 563.2 851.2 518.4 883.2 499.2 896 480 896 460.8 889.6c-12.8-6.4-12.8-6.4-19.2-12.8C396.8 844.8 358.4 800 320 742.4 268.8 755.2 217.6 768 160 768h-6.4c-25.6 0-51.2-19.2-57.6-38.4C44.8 608 64 441.6 134.4 320c64-108.8 166.4-179.2 281.6-192H448v-211.2c0-25.6 19.2-44.8 38.4-44.8s38.4 12.8 38.4 32v211.2h32c115.2 25.6 211.2 89.6 275.2 204.8z m-294.4-134.4H435.2c-108.8 19.2-192 70.4-243.2 166.4C128 460.8 115.2 601.6 153.6 704h12.8c51.2 0 108.8-12.8 153.6-32l25.6-12.8 12.8 25.6c38.4 64 76.8 115.2 121.6 147.2 44.8-32 83.2-83.2 121.6-147.2l12.8-25.6 25.6 12.8c51.2 19.2 108.8 32 166.4 32h6.4c38.4-102.4 25.6-243.2-38.4-352-51.2-96-134.4-147.2-236.8-166.4z m-371.2-128c-51.2 12.8-102.4 19.2-121.6 19.2-19.2 0-32-19.2-32-32 0-19.2 19.2-32 32-32 76.8 0 204.8-32 294.4-128 12.8-12.8 38.4-12.8 44.8-6.4 12.8 12.8 12.8 32 0 44.8-57.6 70.4-128 108.8-217.6 134.4z m761.6 19.2c-25.6 0-70.4-6.4-121.6-19.2-83.2-19.2-160-64-217.6-128-12.8-12.8-12.8-32 0-44.8 12.8-12.8 32-12.8 44.8 0 89.6 96 211.2 128 294.4 128 19.2 0 32 12.8 32 32s-12.8 32-32 32z m0 0M307.2 313.6c-6.4 0-12.8 0-12.8 6.4-76.8 44.8-115.2 134.4-108.8 262.4 0 12.8 12.8 25.6 25.6 25.6s25.6-12.8 25.6-25.6c0-108.8 25.6-185.6 83.2-224 12.8-6.4 12.8-19.2 6.4-32-6.4-6.4-12.8-12.8-19.2-12.8z m0 0"  horiz-adv-x="1024" />

    
    <glyph glyph-name="manyidu1" unicode="&#58885;" d="M470.016 285.184c131.584 0 238.08 107.52 238.08 239.104 0 64-24.576 123.904-69.632 168.96s-104.96 70.144-168.448 70.144c-131.584 0-238.08-107.52-238.08-239.104-0.512-132.096 106.496-239.104 238.08-239.104z m0 429.056c103.936 0 188.928-84.992 188.928-189.952 0-104.448-84.992-189.952-188.928-189.952-103.936 0-188.928 84.992-188.928 189.952 0 104.448 84.48 189.952 188.928 189.952zM538.112 57.344c-1.024 1.024-2.56 1.536-4.096 1.536H315.904c-7.68 0-13.824 2.56-17.92 7.168-4.096 4.608-5.632 11.264-5.12 18.944l29.696 202.24c0 1.536-0.512 3.072-1.536 4.608l-37.888 40.96c-1.024 1.024-2.56 1.536-4.096 1.536h-1.536c-2.048-0.512-3.584-2.56-3.584-4.608L239.104 92.16c-3.072-23.552 3.584-45.568 17.92-61.952 14.336-16.384 35.328-25.6 58.368-25.6H573.44c2.048 0 4.096 1.536 5.12 3.072 1.024 2.048 0.512 4.096-1.024 6.144l-39.424 43.52zM813.056 250.88l-62.464 9.216-28.16 56.832c-14.848 30.208-49.152 30.208-64 0l-28.16-56.832L568.32 250.88c-33.28-4.608-44.032-37.376-19.968-60.928l45.056-44.032-10.752-62.464c-5.632-33.28 22.016-53.248 51.712-37.888l55.808 29.184 55.808-29.184c29.696-15.872 57.856 4.608 51.712 37.888l-10.752 62.464 45.056 44.032c25.088 23.552 14.336 55.808-18.944 60.928z m-27.136-47.104l-44.544-43.008 10.24-60.928c0.512-3.584-3.072-6.144-6.144-4.608l-54.784 28.672-54.784-28.672c-3.072-1.536-7.168 1.024-6.144 4.608l10.24 60.928-44.544 43.008c-2.56 2.56-1.024 7.168 2.56 7.68l61.44 8.704 27.648 55.808c1.536 3.072 6.144 3.072 7.68 0L721.92 220.16l61.44-8.704c3.584-0.512 5.12-5.12 2.56-7.68z"  horiz-adv-x="1024" />

    
    <glyph glyph-name="hulian" unicode="&#58883;" d="M802.377358 289.777803a118.816995 118.816995 0 0 1 83.682938 35.134058 120.094597 120.094597 0 0 1 34.495256 84.321739 116.900592 116.900592 0 0 1-28.107246 77.294927 118.816995 118.816995 0 0 1-70.906916 40.244466 37.689262 37.689262 0 0 0-31.301252 37.050461 255.52042 255.52042 0 0 1-398.611855 215.275954 255.52042 255.52042 0 0 1-94.542556-113.706587 38.328063 38.328063 0 0 0-33.856455-22.358037 176.947891 176.947891 0 0 1-113.706587-301.514096 177.586692 177.586692 0 0 1 127.76021-51.742885z m-255.52042-75.378524v-92.626152a111.151383 111.151383 0 0 0 52.381686-31.940052 122.011001 122.011001 0 0 0 31.940053-51.104084h327.066137a36.41166 36.41166 0 0 0 37.050461-37.050461 37.689262 37.689262 0 0 0-37.050461-37.689262H633.09508a122.011001 122.011001 0 0 0-32.578854-54.29809 123.288603 123.288603 0 0 0-89.432147-37.689262 127.76021 127.76021 0 0 0-90.709749 37.689262 134.787022 134.787022 0 0 0-32.578853 54.29809H62.006941A37.050461 37.050461 0 0 0 24.95648 1.67853a36.41166 36.41166 0 0 0 37.050461 37.050461h328.34374a113.706587 113.706587 0 0 0 30.66245 51.104084 116.261791 116.261791 0 0 0 53.020487 31.940052V212.482876H276.644094a255.52042 255.52042 0 0 0-183.335902 424.802699 255.52042 255.52042 0 0 0 146.285441 76.017325 336.648153 336.648153 0 0 0 113.067786 127.76021A329.621342 329.621342 0 0 0 534.719718 895.361199a333.454148 333.454148 0 0 0 235.717588-97.09776 338.564557 338.564557 0 0 0 95.820157-205.693938 198.667127 198.667127 0 0 0 85.599341-58.769697 194.83432 194.83432 0 0 0-11.498419-262.547231 200.58353 200.58353 0 0 0-135.425823-57.492095h-255.52042z m21.080435-153.951053a83.682938 83.682938 0 0 1-141.813833-58.130895 83.682938 83.682938 0 0 1 83.682937-83.044137 82.405335 82.405335 0 0 1 58.130896 141.175032z"  horiz-adv-x="1024" />

    
    <glyph glyph-name="anquanzhongxin89-copy" unicode="&#58889;" d="M512.43945313-65.78027343999997c-131.8359375 0-376.83105469 201.04980469-376.83105469 391.11328125L135.60839844 703.26269531l37.35351562 1.09863281c1.09863281 0 84.59472656 2.19726563 171.38671875 36.25488282 88.98925781 36.25488281 146.11816406 76.90429688 146.11816407 76.90429687l21.97265625 16.47949219L534.41210938 817.52050781c0 0 58.22753906-41.74804688 146.11816406-76.90429687 86.79199219-35.15625 170.28808594-36.25488281 171.38671875-36.25488282l37.35351562-1.09863281 0-377.9296875C889.27050781 135.26953125 644.27539063-65.78027343999997 512.43945313-65.78027343999997L512.43945313-65.78027343999997zM198.23046875 640.640625l0-318.60351563c0-152.70996094 223.02246094-328.49121094 313.11035156-328.49121093 91.18652344 0 313.11035156 174.68261719 313.11035156 328.49121094l0 318.60351562c-38.45214844 4.39453125-102.17285156 14.28222656-168.09082031 41.74804688C590.44238281 709.85449219 539.90527344 739.51757813 512.43945313 757.09570313c-27.46582031-17.578125-79.1015625-47.24121094-146.11816407-74.70703126C300.40332031 656.02148438 237.78125 645.03515625 198.23046875 640.640625L198.23046875 640.640625zM491.56542969 182.51074218999997L331.16503906 318.74121094l49.43847657 58.22753906 103.27148437-86.79199219 195.55664063 224.12109375 57.12890624-49.43847656L491.56542969 182.51074218999997z"  horiz-adv-x="1024" />

    
    <glyph glyph-name="banjianshenpi" unicode="&#58937;" d="M387.529 19.074H161.842c-14.51 0-26.242 11.73-26.242 26.244V727.933c0 14.511 11.731 26.243 26.242 26.243h558.713c14.508 0 26.24-11.731 26.24-26.243v-67.922h-0.101v-21.817h0.101l-0.101-13.378-0.207-35.917c0-19.861 16.156-35.916 35.918-35.916 19.859 0 35.913 16.157 35.913 35.916V727.934c0.104 54.029-43.839 97.87-97.764 97.87H161.842c-53.926 0-97.869-43.943-97.869-97.87V45.11c0-53.926 43.943-97.869 97.869-97.869H387.94c19.862 0 35.917 16.158 35.917 35.916 0 19.864-16.259 35.917-36.328 35.917zM428.488 244.246H233.984c-19.759 0-35.916-16.053-35.916-35.918 0-19.76 16.054-35.916 35.916-35.916h194.504c19.76 0 35.917 16.057 35.917 35.916 0 19.762-16.054 35.918-35.917 35.918zM233.984 430.311c-19.759 0-35.916-16.157-35.916-35.916 0-19.759 16.054-35.915 35.916-35.915h294.639c19.757 0 35.915 16.156 35.915 35.915 0 19.758-16.055 35.916-35.915 35.916H233.984zM673.729 580.769c0 19.759-16.054 35.917-35.918 35.917H233.984c-19.759 0-35.916-16.055-35.916-35.917 0-19.759 16.054-35.917 35.916-35.917h403.827c19.76 0.001 35.918 16.055 35.918 35.917zM897.403 60.436c-10.685 18.506-27.937 31.744-48.577 37.274l-42.593 11.412c-14.381 58.557-1.844 128.816 19.046 178.324 25.538 17.922 42.314 42.815 51.153 75.805 18.49 69.007-7.095 133.799-58.246 147.505a73.744 73.744 0 0 1-19.09 2.505c-45.931 0-89.151-41.584-105.104-101.125-8.161-30.457-7.959-61.075 0.445-87.211-12.709-91.311-46.122-141.43-70.777-166.882l-44.327 11.877a80.156 80.156 0 0 1-20.737 2.739c-36.123 0-67.886-24.389-77.242-59.308l-6.902-25.757c-5.53-20.642-2.692-42.2 7.992-60.706 10.685-18.506 27.937-31.743 48.577-37.273l269.494-72.211a80.127 80.127 0 0 1 20.734-2.738h0.003c36.12 0 67.885 24.389 77.241 59.308l6.901 25.757c5.532 20.64 2.693 42.199-7.991 60.705zM710.707 177.157c22.287 41.345 37.155 90.911 44.19 147.323a30.014 30.014 0 0 1-1.921 14.87c-6.234 15.561-6.609 36.43-1.029 57.257 9.08 33.889 31.71 56.654 47.149 56.654 1.239 0 2.403-0.151 3.561-0.461 13.563-3.634 26.469-34.276 15.82-74.02-5.784-21.585-15.502-35.149-32.497-45.358a30.003 30.003 0 0 1-11.806-13.176c-16.234-35.278-27.616-76.915-32.047-117.24-2.922-26.588-2.838-52.463 0.144-76.745l-54.586 14.626c8.296 11.117 15.988 23.22 23.022 36.27z m136.732-161.898l-6.901-25.756c-2.341-8.736-10.272-14.837-19.287-14.837-1.738 0-3.49 0.233-5.208 0.693L546.549 47.57a19.874 19.874 0 0 0-12.144 9.318 19.87 19.87 0 0 0-1.998 15.177l6.902 25.757c2.341 8.735 10.271 14.837 19.286 14.837 1.737 0 3.489-0.233 5.208-0.694l60.429-16.191 150.198-40.246 58.866-15.772a19.871 19.871 0 0 0 12.145-9.319 19.872 19.872 0 0 0 1.998-15.178z"  horiz-adv-x="1024" />

    
    <glyph glyph-name="chuli" unicode="&#58903;" d="M951.467 221.867c0 8.533 0 12.8-4.267 21.333s-8.533 17.067-17.067 25.6c-4.266 8.533-12.8 12.8-21.333 17.067-8.533 4.266-17.067 8.533-25.6 8.533h-4.267c-8.533 0-21.333-4.267-25.6-12.8-4.266-4.267-29.866-25.6-29.866-25.6l89.6-89.6 4.266 4.267c4.267 0 4.267 4.266 8.534 8.533s21.333 25.6 21.333 25.6c4.267 4.267 4.267 12.8 4.267 17.067zM802.133 243.2l-89.6-89.6-34.133-34.133-29.867-29.867L627.2 64l-12.8-12.8c-8.533-8.533-12.8-17.067-17.067-25.6 0-4.267-4.266-8.533-4.266-12.8l-8.534-21.333c-4.266-8.534-4.266-17.067-8.533-25.6 0-8.534-4.267-12.8-4.267-17.067 0-8.533 0-17.067 4.267-21.333 4.267-4.267 8.533-4.267 17.067-4.267h8.533c4.267 0 8.533 0 17.067 4.267 8.533 0 17.066 4.266 21.333 8.533 8.533 4.267 17.067 4.267 25.6 8.533 4.267 0 12.8 4.267 17.067 8.534 4.266 4.266 8.533 4.266 12.8 8.533l12.8 8.533 8.533 12.8c8.533 8.534 12.8 17.067 21.333 21.334l64 64 98.134 98.133-89.6 81.067-8.534-4.267z m-499.2 452.267c25.6 0 42.667 21.333 42.667 42.666V810.667c0 25.6-21.333 42.666-42.667 42.666S260.267 832 260.267 810.667V742.4c0-25.6 17.066-46.933 42.666-46.933z m98.134 38.4H524.8c21.333 0 34.133 17.066 34.133 34.133S541.867 802.133 524.8 802.133H401.067c-17.067 4.267-34.134-12.8-34.134-29.866s17.067-38.4 34.134-38.4z m230.4-38.4c25.6 0 42.666 21.333 42.666 42.666V810.667c0 25.6-21.333 42.666-42.666 42.666-25.6 0-42.667-21.333-42.667-42.666V742.4c0-25.6 17.067-46.933 42.667-46.933zM256 494.933h413.867c21.333 0 38.4 17.067 38.4 38.4s-17.067 38.4-38.4 38.4H256c-17.067 0-34.133-17.066-34.133-38.4s17.066-38.4 34.133-38.4zM669.867 435.2H256c-21.333 0-38.4-17.067-38.4-38.4s17.067-38.4 38.4-38.4h413.867c21.333 0 38.4 17.067 38.4 38.4s-17.067 38.4-38.4 38.4zM729.6 738.133H768c8.533 0 17.067-8.533 17.067-17.066V268.8l68.266 64v384c0 46.933-38.4 89.6-85.333 89.6h-38.4c-17.067 0-34.133-17.067-34.133-34.133 0-21.334 17.066-34.134 34.133-34.134zM157.867 12.8c-8.534 0-17.067 8.533-17.067 17.067V716.8c0 8.533 8.533 17.067 17.067 17.067h29.866c17.067 0 34.134 17.066 34.134 34.133S204.8 806.4 187.733 806.4h-29.866c-46.934 0-85.334-38.4-85.334-89.6v-691.2c0-46.933 38.4-89.6 85.334-89.6h337.066l72.534 68.267-409.6 8.533z"  horiz-adv-x="1024" />

    
    <glyph glyph-name="top-illegal" unicode="&#59024;" d="M381.866667 471.466667l2.133333-2.133334h8.533333c4.266667 0 8.533333 2.133333 12.8 4.266667 4.266667 4.266667 4.266667 8.533333 4.266667 14.933333v4.266667c-12.8 25.6-25.6 46.933333-38.4 66.133333l-2.133333 2.133334h-8.533334c-8.533333 0-14.933333-4.266667-17.066666-14.933334v-4.266666l2.133333-2.133334c8.533333-17.066667 21.333333-38.4 36.266667-68.266666z m61.866666-57.6h-2.133333l-2.133333-2.133334c-6.4-4.266667-8.533333-8.533333-8.533334-14.933333 0-4.266667 2.133333-10.666667 8.533334-14.933333l2.133333-2.133334h78.933333v-96l2.133334-2.133333c4.266667-6.4 14.933333-8.533333 19.2-8.533333 10.666667 0 17.066667 2.133333 21.333333 8.533333l2.133333 2.133333v96h57.6c4.266667 0 6.4 0 8.533334-2.133333v-53.333333s-2.133333-2.133333-12.8-2.133334c-17.066667 0-27.733333 14.933333-36.266667-4.266666-2.133333-6.4 8.533333-27.733333 34.133333-27.733334 17.066667 0 29.866667 4.266667 36.266667 12.8 6.4 6.4 8.533333 17.066667 8.533333 29.866667v42.666667c2.133333 10.666667-2.133333 19.2-6.4 25.6-6.4 6.4-14.933333 10.666667-27.733333 10.666666h-64v27.733334h78.933333l2.133334 2.133333c6.4 4.266667 8.533333 8.533333 8.533333 14.933333 0 4.266667-2.133333 10.666667-8.533333 14.933334l-2.133334 2.133333h-76.8v27.733333h87.466667l2.133333 2.133334c8.533333 8.533333 8.533333 19.2 0 27.733333l-2.133333 2.133333h-87.466667V569.6l-2.133333 2.133333c-4.266667 6.4-14.933333 8.533333-21.333333 8.533334-4.266667 0-14.933333-2.133333-19.2-8.533334l-2.133334-2.133333V533.333333H439.466667c-6.4-4.266667-8.533333-8.533333-8.533334-14.933333 0-4.266667 2.133333-10.666667 8.533334-14.933333l2.133333-2.133334h78.933333v-27.733333h-61.866666l-2.133334-2.133333c-6.4-4.266667-8.533333-8.533333-8.533333-14.933334 0-4.266667 2.133333-10.666667 8.533333-14.933333l2.133334-2.133333h61.866666v-27.733334h-76.8zM663.466667 256h-174.933334c-32 0-59.733333 17.066667-78.933333 51.2v96c2.133333 10.666667-2.133333 19.2-6.4 25.6-6.4 6.4-14.933333 10.666667-27.733333 10.666667H334.933333l-2.133333-2.133334c-6.4-4.266667-8.533333-8.533333-8.533333-14.933333 0-4.266667 2.133333-10.666667 8.533333-14.933333l2.133333-2.133334h34.133334c6.4 0 8.533333-2.133333 8.533333-2.133333v-102.4c-10.666667-17.066667-25.6-32-46.933333-40.533333l-2.133334-2.133334v-2.133333c-2.133333-6.4-2.133333-12.8 0-17.066667 2.133333-4.266667 8.533333-6.4 14.933334-6.4h2.133333c17.066667 8.533333 34.133333 21.333333 49.066667 38.4 23.466667-32 53.333333-46.933333 89.6-46.933333h179.2l2.133333 2.133333c8.533333 8.533333 8.533333 19.2-2.133333 29.866667z m200.533333-183.466667l-89.6 93.866667c110.933333 134.4 106.666667 337.066667-14.933333 467.2-64 68.266667-153.6 108.8-247.466667 110.933333-93.866667 2.133333-185.6-32-253.866667-96-68.266667-64-108.8-151.466667-110.933333-247.466666-2.133333-93.866667 32-185.6 96-253.866667 64-68.266667 153.6-108.8 247.466667-110.933333h10.666666c76.8 0 151.466667 25.6 211.2 70.4l89.6-93.866667c8.533333-8.533333 19.2-12.8 32-12.8 10.666667 0 21.333333 4.266667 29.866667 10.666667 17.066667 19.2 17.066667 44.8 0 61.866666z m-168.533333 113.066667c-55.466667-51.2-125.866667-78.933333-200.533334-76.8-74.666667 2.133333-145.066667 34.133333-196.266666 89.6-51.2 55.466667-78.933333 125.866667-76.8 200.533333 2.133333 74.666667 34.133333 145.066667 89.6 196.266667 53.333333 49.066667 121.6 76.8 192 76.8h8.533333c74.666667-2.133333 145.066667-34.133333 196.266667-89.6 104.533333-110.933333 100.266667-290.133333-12.8-396.8z"  horiz-adv-x="1024" />

    
    <glyph glyph-name="jiedai" unicode="&#58946;" d="M172.8 643.2l-5.312 1.6a64.64 64.64 0 0 0-29.44 55.552c9.088 30.336 21.568 53.248 37.12 70.848 11.072 12.352 17.792 17.472 35.648 29.184 2.368 2.368 11.968 11.52 13.952 13.632 8.064 8.512 11.392 17.408 16.256 47.872a52.288 52.288 0 0 0 49.984 30.4c22.4-7.424 32.192-23.104 32.128-48.448-3.968-39.68-17.28-66.432-38.656-85.76a133.76 133.76 0 0 0-21.696-16.064 493.888 493.888 0 0 1-13.056-13.376 136.768 136.768 0 0 1-29.44-46.848c-7.936-24-24.64-38.592-47.488-38.592z m224 0l-5.312 1.6c-23.808 15.872-37.76 39.232-29.44 55.552 17.216 57.536 39.04 83.712 72.768 100.032 2.368 2.368 11.968 11.52 13.952 13.632 8.064 8.512 11.392 17.408 16.256 47.872a52.288 52.288 0 0 0 49.984 30.4c22.4-7.424 32.192-23.104 32-49.344-11.072-55.424-29.12-80.448-60.16-100.928a479.68 479.68 0 0 1-10.688-10.816c-14.784-15.68-23.04-29.504-31.872-55.808l-0.512-1.28c-9.152-18.368-25.92-30.912-46.976-30.912z m217.6 0l-6.784 2.816c-18.752 18.688-29.184 39.552-21.824 53.44 8.768 43.84 25.728 70.208 53.76 92.928 3.2 2.56 6.4 4.992 10.496 8.064l10.24 7.552c19.008 12.672 22.4 17.856 28.736 47.488a52.288 52.288 0 0 0 49.984 30.4c22.4-7.424 32.192-23.104 32-49.344-11.52-57.728-32.192-84.224-68.096-102.144-20.608-13.696-30.144-26.496-41.536-60.288-8.64-17.28-24.512-30.912-40.576-30.912h-6.4z m235.52-668.8c19.968 0 33.28-23.04 33.28-38.4 0-23.04-13.312-38.4-33.28-38.4H84.48c-19.968 0-33.28 15.36-33.28 38.4s13.312 38.4 33.28 38.4h765.44z m39.68 571.2h91.648l15.168-44.352 1.984-11.84c0 4.864 2.944-6.592 6.144-21.44 8.32-39.36 10.688-77.888 3.456-115.712a188.032 188.032 0 0 0-31.36-74.112c-34.816-40.832-81.92-63.872-145.792-73.28-68.416-116.672-198.848-190.016-344.448-190.016h-64c-225.024 0-403.2 178.112-403.2 399.616v131.2c0 41.088 25.472 72.96 69.376 62.4H819.2c40.064 0 70.4-21.12 70.4-62.464z m39.68-92.8c-0.448 2.24-2.432 9.984-4.224 17.92H812.8V533.12H96v-118.656c0-180.48 144.256-324.672 326.4-324.672h64c124.096 0 233.6 65.088 285.632 166.592l9.472 18.496 21.12 2.048c55.936 5.44 90.752 20.736 112.64 45.952 8.448 12.352 14.08 26.816 17.28 43.136 5.12 26.688 3.2 56.128-3.2 86.784z m-552.32-219.328a38.272 38.272 0 0 0-9.216 24.96V416a38.4 38.4 0 1 0 76.8 0v-127.168l125.44-29.44a38.4 38.4 0 0 0-12.608-75.712l-157.504 36.928a38.272 38.272 0 0 0-23.104 13.184l0.192-0.32z"  horiz-adv-x="1024" />

    
    <glyph glyph-name="renshu" unicode="&#58948;" d="M787.551966 16.982538999999974c-3.284 146.077206-93.04668 272.32878-219.176625 328.764937-3.284 3.284-6.689631 3.284-13.257631 6.689631 66.409787 46.462525 109.588312 122.845944 109.588312 212.608623 0 142.793206-109.588312 255.787148-249.097517 255.787148C276.099299 820.711248 169.794988 707.838936 169.794988 564.9241c0-89.64105 43.178525-166.024468 109.588312-212.608623C146.563725 299.284951 50.233044 169.74937599999998 46.949044 16.982538999999974v-39.894524c0-16.663262 13.257632-29.920893 29.920893-29.920893 16.663262 0 29.920893 13.257632 29.920893 29.920893V20.266539999999964c6.689631 166.024468 142.793206 298.965673 308.939304 298.965673 169.430099 0 305.533674-136.225205 308.939304-302.249674v-39.894524c0-16.663262 13.257632-29.920893 29.920893-29.920893 16.663262 0 29.920893 13.257632 29.920894 29.920893v36.488894c3.040741 0.12163 3.040741 3.40563 3.040741 3.40563zM229.636774 564.9241c0 106.304312 83.073049 195.945362 189.255731 195.945362 106.304312 0 189.255731-86.35705 189.255731-195.945362s-83.073049-195.945362-189.255731-195.945361-189.255731 86.35705-189.255731 195.945361z m0 0M976.929327 80.10832600000003c-3.284 73.099418-29.920893 139.509205-76.383419 195.945362-29.920893 36.488894-69.693788 63.125787-112.872313 83.073049 53.152156 39.894524 86.35705 103.020311 86.35705 172.714099 0 83.073049-46.462525 156.050837-116.277943 192.661361-3.284 0-9.973631 3.284-9.973631 3.284001-6.689631 3.284-13.257632 6.689631-19.947262 6.68963l-9.973631 3.284001c-16.663262 6.689631-33.204894-3.284-39.894524-19.947262-6.689631-16.663262 3.284-33.204894 16.663261-39.894524l16.663262-3.284001c56.436156-19.947262 99.614681-76.383418 99.614681-142.793206s-39.894524-122.845944-99.614681-139.509205h-19.947262c-19.947262 0-36.488894-16.663262-36.488894-36.488894 0-19.947262 16.663262-36.488894 36.488894-36.488895h19.947262c112.872313-23.231263 202.634992-122.845944 205.918993-242.407886v-36.488895c0-16.663262 13.257632-29.920893 29.920893-29.920893 16.663262 0 29.920893 13.257632 29.920893 29.920893v39.651265z m0 0"  horiz-adv-x="1024" />

    
    <glyph glyph-name="ico-dengdai" unicode="&#58880;" d="M394.1 31c0 16.6-14 30-31.2 30h-206c-9.3 0-16.1 5.7-19.4 9.1-7 7.3-10.9 17.7-10.9 28.6V670.3c0 10.8 4 21.2 10.9 28.6 3.2 3.4 10.1 9.1 19.4 9.1h653.4c9.3 0 16.1-5.7 19.4-9.1 7-7.3 10.9-17.7 10.9-28.6v-69.9c0-16.6 14-30 31.2-30s31.2 13.4 31.2 30v69.9c0 53.7-41.7 97.7-92.8 97.7H156.8c-51 0-92.8-44-92.8-97.7v-571.6c0-53.7 41.7-97.7 92.8-97.7h206c17.3 0 31.3 13.5 31.3 30zM666.6 510.5c31.8 0 62.6-6 91.5-17.9 27.9-11.4 52.9-27.8 74.3-48.6 43.7-42.4 67.8-98.6 67.8-158.3s-24.1-115.9-67.8-158.3c-21.5-20.8-46.4-37.1-74.3-48.6-28.9-11.8-59.7-17.8-91.5-17.8s-62.6 6-91.5 17.9c-27.9 11.4-52.9 27.8-74.3 48.6-43.7 42.4-67.8 98.6-67.8 158.3s24.1 115.9 67.8 158.3c21.4 20.8 46.4 37.1 74.3 48.6 29 11.7 59.8 17.8 91.5 17.8m0 60c-162.1 0-293.5-127.5-293.5-284.7S504.5 1 666.6 1s293.5 127.5 293.5 284.7-131.3 284.8-293.5 284.8zM700.9 378.9v-132c0-16.5-13.5-30-30-30s-30 13.5-30 30v132c0 16.5 13.5 30 30 30s30-13.5 30-30zM670.1 277.70000000000005H783c16.5 0 30-13.5 30-30s-13.5-30-30-30H670.1c-16.5 0-30 13.5-30 30s13.5 30 30 30zM529 532.7H114v-60h415v60zM242.1 374.70000000000005c-16.6 0-30-13.4-30-30v-163.2c0-16.6 13.4-30 30-30s30 13.4 30 30V344.70000000000005c0 16.5-13.4 30-30 30z"  horiz-adv-x="1024" />

    
    <glyph glyph-name="kaiye" unicode="&#58923;" d="M887.913 576H96c-17.674 0-32-14.326-32-32v-576c0-17.674 14.326-32 32-32h832c17.674 0 32 14.326 32 32V544c0 17.674-14.326 32-32 32h-40.087zM361.98 640h317.472L575.05 727.605C558.183 712.903 536.13 704 512 704c-20.01 0-38.59 6.123-53.97 16.595L361.98 640z m-99.566 0l157.648 132.283A96.004 96.004 0 0 0 416 800c0 53.02 42.98 96 96 96s96-42.98 96-96a96.619 96.619 0 0 0-1.405-16.453 32.087 32.087 0 0 0 6.257-4.117L779.02 640H960c35.346 0 64-28.654 64-64v-640c0-35.346-28.654-64-64-64H64c-35.346 0-64 28.654-64 64V576c0 35.346 28.654 64 64 64h198.414zM512 768c17.674 0 32 14.326 32 32s-14.326 32-32 32-32-14.326-32-32 14.326-32 32-32zM422.903 306.39v-25.87h31.668c7.143 0 12.934 5.791 12.934 12.935 0 7.143-5.79 12.934-12.934 12.934h-31.668z m0-79.392v-54.413c0-14.78-11.98-26.761-26.76-26.761-14.78 0-26.762 11.98-26.762 26.76V333.15c0 14.78 11.982 26.761 26.762 26.761h58.428c36.703 0 66.456-29.753 66.456-66.456s-29.753-66.457-66.456-66.457h-31.668z m178.407-0.891v-26.762h80.283c14.78 0 26.761-11.98 26.761-26.76 0-14.78-11.982-26.761-26.761-26.761H574.549a26.677 26.677 0 0 0-18.922 7.838 26.677 26.677 0 0 0-7.84 18.923V333.15a26.677 26.677 0 0 0 7.84 18.923 26.677 26.677 0 0 0 18.922 7.838h107.044c14.78 0 26.761-11.981 26.761-26.761s-11.982-26.76-26.761-26.76H601.31v-26.761h80.283c14.78 0 26.761-11.982 26.761-26.762 0-14.78-11.982-26.76-26.761-26.76H601.31z m275.502-79.1c10.927 3.367 18.87 13.544 18.87 25.578V333.15c0 14.78-11.983 26.761-26.764 26.761-14.778 0-26.76-11.981-26.76-26.761v-71.36l-55.847 85.998c-5.49 8.455-14.949 12.783-24.34 12.123h-0.096c-14.78 0-26.76-11.981-26.76-26.761v-160.565c0-14.78 11.98-26.761 26.76-26.761 14.78 0 26.762 11.98 26.762 26.76v73.353l57.229-88.125c6.79-10.456 19.648-14.6 30.946-10.805z m-641.234-1.184c-59.12 0-107.045 47.925-107.045 107.044s47.926 107.044 107.045 107.044c59.117 0 107.043-47.925 107.043-107.044s-47.926-107.043-107.043-107.043z m0 53.522c29.558 0 53.52 23.963 53.52 53.522s-23.962 53.522-53.52 53.522c-29.56 0-53.523-23.962-53.523-53.522s23.963-53.522 53.523-53.522z"  horiz-adv-x="1024" />

    
    <glyph glyph-name="manyidu" unicode="&#58881;" d="M460.3904 58.9824a128 128 0 0 0 103.2192 0l219.7248-96.8192-23.424 246.272a128 128 0 0 0 33.1264 98.7136l157.6192 171.6736-228.0192 54.6304a128 128 0 0 0-78.4384 56.2176L512 799.3344l-132.1984-209.664a128 128 0 0 0-78.4384-56.2176l-228.0192-54.6304 157.6192-171.6736a128 128 0 0 0 33.1264-98.688l-23.424-246.272 219.7248 96.7936zM249.344-89.9584a43.52 43.52 0 0 0-60.8768 43.9296l24.6528 259.328a76.8 76.8 0 0 1-19.8656 59.2128l-166.4512 181.2992a43.52 43.52 0 0 0 21.9136 71.7568l240.7168 57.6768a76.8 76.8 0 0 1 47.0784 33.7408l138.6752 219.9808a43.52 43.52 0 0 0 73.6256 0l138.6752-219.9808a76.8 76.8 0 0 1 47.104-33.7408l240.6912-57.6768a43.52 43.52 0 0 0 21.9136-71.7568l-166.4512-181.2992a76.8 76.8 0 0 1-19.8656-59.2128l24.6528-259.328a43.52 43.52 0 0 0-60.8768-43.9296l-231.68 102.0928a76.8 76.8 0 0 1-61.952 0l-231.68-102.0928zM389.0432 358.7584a43.52 43.52 0 1 0 0 87.04 43.52 43.52 0 0 0 0-87.04z m256.1536 0a43.52 43.52 0 1 0 0 87.04 43.52 43.52 0 0 0 0-87.04z m-245.888-97.6128a22.144 22.144 0 0 0 40.1408 18.7392 80.256 80.256 0 0 1 145.2544-0.5888 22.144 22.144 0 1 0 39.9616-19.072 124.544 124.544 0 0 0-225.3568 0.9216z"  horiz-adv-x="1024" />

    


  </font>
</defs>
</svg>
